<svg width="114" height="39" viewBox="0 0 114 39" fill="none" xmlns="http://www.w3.org/2000/svg"><path d="M44 29V26.4902H39.5455V22.098H43.0455V19.5882H39.5455V15.1961H44V13H37V29H44Z" fill="white" stroke="white"/><path fill-rule="evenodd" clip-rule="evenodd" d="M49.5516 29H47V13.1518C47 13.1518 50.1894 12.8102 52.1031 13.1518C53.329 13.3706 54.0168 14.1027 54.6547 15.0536C55.2926 16.3214 54.8969 18.2232 54.6547 18.8572C54.2743 19.8526 53.0599 21.0759 53.0599 21.0759C53.0599 21.0759 54.5396 21.9744 54.6547 22.6607C54.7037 22.9531 54.6547 29 54.6547 29H52.4221V23.6116C52.4221 23.2947 52.1431 22.6029 51.4652 22.3438C50.9859 22.1606 49.5516 22.3438 49.5516 22.3438V29ZM51.4652 15.3706H49.5516V20.125H51.4652C52.1871 20.125 52.1031 19.1741 52.1031 19.1741V16.0045C52.1031 16.0045 52.1724 15.3706 51.4652 15.3706Z" fill="white"/><path d="M52.4221 29H54.6547C54.6547 29 54.7037 22.9531 54.6547 22.6607C54.5396 21.9744 53.0599 21.0759 53.0599 21.0759C53.0599 21.0759 54.2743 19.8526 54.6547 18.8572C54.8969 18.2232 55.2926 16.3214 54.6547 15.0536C54.0168 14.1027 53.329 13.3706 52.1031 13.1518C50.1894 12.8102 47 13.1518 47 13.1518V29H49.5516V22.3438C49.5516 22.3438 50.9859 22.1605 51.4652 22.3438C52.1431 22.6029 52.4221 23.2947 52.4221 23.6116M52.4221 29C52.4221 29 52.4221 25.1964 52.4221 23.6116M52.4221 29V23.6116M49.5516 15.3706C49.5516 15.3706 50.8273 15.3706 51.4652 15.3706M49.5516 15.3706V20.125M49.5516 15.3706H51.4652M51.4652 15.3706C52.1724 15.3706 52.1031 16.0045 52.1031 16.0045V19.1741C52.1031 19.1741 52.1871 20.125 51.4652 20.125M51.4652 20.125C50.8273 20.125 49.5516 20.125 49.5516 20.125M51.4652 20.125H49.5516" stroke="white"/><path d="M60.4615 29H58V13H60.7692L63.8462 22.3544V13H66V29H63.5385L60.4615 18.2404V29Z" fill="white" stroke="white"/><path d="M83.4615 29H81V13H83.7692L86.8462 22.3544V13H89V29H86.5385L83.4615 18.2404V29Z" fill="white" stroke="white"/><path fill-rule="evenodd" clip-rule="evenodd" d="M69 29H71.25L71.8929 26.12H75.1071L75.4286 29H78L75.4286 13H71.8929L69 29ZM73.5 15.88L74.7857 24.2H72.2143L73.5 15.88Z" fill="white" stroke="white"/><path fill-rule="evenodd" clip-rule="evenodd" d="M92 29H97C99 29 100 27.4 100 26.12V15.88C100 14.6 98.841 13 97 13H92V29ZM94.6667 26.76V15.24H96.3333C97.3333 15.24 97.3333 16.52 97.3333 16.52V25.48C97.3333 25.48 97.3333 26.76 96.3333 26.76H94.6667Z" fill="white"/><path d="M92 29C92 29 94.6667 29 97 29M92 29V13M92 29H97M97 29C99 29 100 27.4 100 26.12M100 26.12C100 22.28 100 19.4 100 15.88M100 26.12V15.88M100 15.88C100 14.6 98.841 13 97 13M97 13C95.159 13 92 13 92 13M97 13H92M94.6667 15.24V26.76M94.6667 15.24C94.6667 15.24 95.6667 15.24 96.3333 15.24M94.6667 15.24H96.3333M94.6667 26.76C94.6667 26.76 95.6667 26.76 96.3333 26.76M94.6667 26.76H96.3333M96.3333 26.76C97.3333 26.76 97.3333 25.48 97.3333 25.48V16.52C97.3333 16.52 97.3333 15.24 96.3333 15.24" stroke="white"/><path fill-rule="evenodd" clip-rule="evenodd" d="M107 29C109.333 29 111 28.1758 111 25.9811V16.0189C111 15.1132 109.357 13 107 13C104.667 13 103 14.5094 103 16.0189L103 25.9811C103 27.7925 105.065 29 107 29ZM105.667 16.0189C105.667 15.4151 106.418 15.4151 107 15.4151C107.582 15.4151 108.333 15.4151 108.333 16.0189V25.9811C108.333 26.5706 107.651 26.8868 107 26.8868C106.349 26.8868 105.667 26.5849 105.667 25.9811V16.0189Z" fill="white"/><path d="M111 25.9811C111 28.1758 109.333 29 107 29C105.065 29 103 27.7925 103 25.9811M111 25.9811C111 22.9623 111 19.3396 111 16.0189M111 25.9811V16.0189M111 16.0189C111 15.1132 109.357 13 107 13C104.667 13 103 14.5094 103 16.0189M103 16.0189C103 19.6415 103 22.9623 103 25.9811M103 16.0189L103 25.9811M105.667 16.0189C105.667 15.4151 106.418 15.4151 107 15.4151C107.582 15.4151 108.333 15.4151 108.333 16.0189M105.667 16.0189C105.667 18.1321 105.667 23.566 105.667 25.9811M105.667 16.0189V25.9811M105.667 25.9811C105.667 26.5849 106.349 26.8868 107 26.8868C107.651 26.8868 108.333 26.5706 108.333 25.9811M108.333 25.9811C108.333 22.6604 108.333 17.5283 108.333 16.0189M108.333 25.9811V16.0189" stroke="white"/><path d="M13.0183 5.20711C12.7422 5.48325 12.7422 5.93096 13.0183 6.20711C13.2945 6.48325 13.7422 6.48325 14.0183 6.20711C14.2945 5.93096 14.2945 5.48325 14.0183 5.20711C13.7422 4.93096 13.2945 4.93096 13.0183 5.20711Z" fill="#0473FF"/><path d="M10.0183 7.20711C9.74221 7.48325 9.74221 7.93096 10.0183 8.20711C10.2945 8.48325 10.7422 8.48325 11.0183 8.20711C11.2945 7.93096 11.2945 7.48325 11.0183 7.20711C10.7422 6.93096 10.2945 6.93096 10.0183 7.20711Z" fill="#0473FF"/><path d="M33.5184 20.2071C33.6307 27.0796 28.925 33.0193 22.6813 35.0237C22.6813 35.0237 13.0183 30.2071 12.5183 29.7071C12.3092 29.4979 15.0183 30.2071 15.0183 28.2071V22.2071H21.0183C21.0183 22.2071 22.5183 21.97 22.5183 20.2071C22.5183 18.4442 21.0183 18.2071 21.0183 18.2071H15.0183V14.7071H23.5183C26.0183 14.2071 24.7612 11.5528 25.0183 11.7071C27.5183 13.2071 33.0183 16.6107 33.0183 16.6107C33.3251 17.763 33.4981 18.9676 33.5184 20.2071Z" fill="#0473FF"/><path d="M7.51835 9.70711C3.90189 12.8495 2.01835 19.2071 3.51836 25.2071C5.01835 29.7071 10.3567 35.2264 17.0183 35.7071C18.9807 35.8487 20.894 35.5974 22.6813 35.0237M17.0183 5.20711C24.4638 4.61901 31.1701 9.66833 33.0183 16.6107M22.6813 35.0237C28.925 33.0193 33.6307 27.0796 33.5184 20.2071C33.4981 18.9676 33.3251 17.763 33.0183 16.6107M22.6813 35.0237C22.6813 35.0237 13.0183 30.2071 12.5183 29.7071C12.3092 29.4979 15.0183 30.2071 15.0183 28.2071C15.0183 26.2071 15.0183 22.2071 15.0183 22.2071H21.0183C21.0183 22.2071 22.5183 21.97 22.5183 20.2071C22.5183 18.4442 21.0183 18.2071 21.0183 18.2071H15.0183V14.7071C15.0183 14.7071 20.0183 14.7071 23.5183 14.7071C26.0183 14.2071 24.7612 11.5528 25.0183 11.7071C27.5183 13.2071 33.0183 16.6107 33.0183 16.6107M13.0183 6.20711C12.7422 5.93096 12.7422 5.48325 13.0183 5.20711C13.2945 4.93096 13.7422 4.93096 14.0183 5.20711C14.2945 5.48325 14.2945 5.93096 14.0183 6.20711C13.7422 6.48325 13.2945 6.48325 13.0183 6.20711ZM10.0183 8.20711C9.74221 7.93096 9.74221 7.48325 10.0183 7.20711C10.2945 6.93096 10.7422 6.93096 11.0183 7.20711C11.2945 7.48325 11.2945 7.93096 11.0183 8.20711C10.7422 8.48325 10.2945 8.48325 10.0183 8.20711Z" stroke="#0473FF"/>
</svg>