<svg width="59" height="37" viewBox="0 0 59 37" fill="none" xmlns="http://www.w3.org/2000/svg">
<path d="M28 7C28 7 29.1268 6 30 6C30.8732 6 32 7 32 7" stroke="white"/>
<path fill-rule="evenodd" clip-rule="evenodd" d="M18.339 19C18.339 19 12.4528 19 13.0414 14.2C13.5472 12.1683 14.863 11 17.1618 11C19.4605 11 21.2821 12.6 21.8708 14.2C22.1616 14.9904 21.8708 16.3333 21.8708 16.3333L18.339 19ZM18.9276 13.1333C18.9276 12.5442 18.4006 12.0667 17.7504 12.0667C17.1002 12.0667 16.5731 12.5442 16.5731 13.1333C16.5731 13.7224 17.1002 14.2 17.7504 14.2C18.4006 14.2 18.9276 13.7224 18.9276 13.1333Z" fill="white"/>
<path fill-rule="evenodd" clip-rule="evenodd" d="M41.2542 19C41.2542 19 46.4864 19 45.9632 14.2C45.5136 12.1683 44.344 11 42.3007 11C40.2574 11 38.6382 12.6 38.1149 14.2C37.8564 14.9904 38.1149 16.3333 38.1149 16.3333L41.2542 19ZM40.731 13.1333C40.731 12.5442 41.1995 12.0667 41.7774 12.0667C42.3554 12.0667 42.8239 12.5442 42.8239 13.1333C42.8239 13.7224 42.3554 14.2 41.7774 14.2C41.1995 14.2 40.731 13.7224 40.731 13.1333Z" fill="white"/>
<path d="M18.5 1.99999C18.5 1.99999 11.9471 2.04406 9 4.49999C6 6.99999 1 12.5 1 12.5C1 12.5 4.01332 15.0084 5.5 17C6.96355 18.9606 8.5 22.5 8.5 22.5C8.5 22.5 8.73803 22.9127 9 23C10 23.5 10 22.5 10 22.5V20.5M18.5 1.99999C18.5 1.99999 13.732 6.03265 12 9.49999C10.0489 13.406 10 20.5 10 20.5M18.5 1.99999C18.5 1.99999 24.8811 1.03382 29 0.999992C33.5078 0.962967 40.5 1.99999 40.5 1.99999M40.5 1.99999C40.5 1.99999 46.6263 2.2703 50 3.99999C53.9317 6.01572 58 12 58 12C58 12 58.1746 12.6507 58 13C57.8765 13.247 57.5 13.5 57.5 13.5C57.5 13.5 54.8061 15.3868 53.5 17C51.8515 19.036 50.5 23 50.5 23C50.5 23 50.0845 23.2977 49.8164 23.2167C49.6731 23.1734 49.5 23 49.5 23L49 21.5M40.5 1.99999C40.5 1.99999 46.3088 6.74889 48 11C49.5226 14.8273 49 21.5 49 21.5M49 21.5C49 21.5 48.6553 23.7385 48 25C47.297 26.3533 45.5 28 45.5 28C45.5 28 46 30 44 32C42.6442 33.0168 41.4607 33.6316 40.4885 34M10 20.5L11 23.5C11 23.5 12.5 25.5 13 26.5C13.5 27.5 13.5 28.5 14 29.5C14.6075 30.7702 15 31.5 16 32.5C16.777 33.2263 18.0911 33.6243 19 33.8245M19 33.8245C19.5835 33.953 20 34 20 34L22.5 34.5L24 35.5C24 35.5 25.2655 36 30 36C34 36 35.5 35.5 35.5 35.5L37.5 34.5C37.5 34.5 38.5925 34.7185 40.4885 34M19 33.8245C19 33.8245 18.1125 32.4818 18 31.5C17.9555 31.112 18 30.5 18 30.5L17.5 25C17.5 25 17.4153 24.3812 17.5 24C17.5947 23.5738 18 23 18 23C18 23 21.6314 16.7372 25.5 16.5C25.8898 16.4761 26.2239 16.7761 26.5 16.5C27.5 15.5 28 14.5 30 14.5C31.7465 14.5 34 16.5 34 16.5H34.5C34.5 16.5 38.951 18.7881 41 22C41.2536 22.3975 41.8461 23.0864 42 23.5C42.1161 23.8119 41.9294 24.1481 42 24.5C43 27.5 42 31.5 42 31.5L40.4885 34" stroke="white"/>
<path d="M25 27.5C25 27.5 27 24 30 23M30 23C30 20.8521 30 17.5 30 17.5M30 23C33.5 24.5 34.5 27.5 34.5 27.5" stroke="white"/>
<path d="M25 13C25 13 27.897 11 30 11C32 11 35.5 13 35.5 13" stroke="white"/>
<path d="M21 6.99998C21 6.99998 23.9836 6.29779 25 7.49998C25.7668 8.407 25.5 10.5 25.5 10.5C25.5 10.5 28.1476 8.99998 30 8.99998C31.8524 8.99998 34.5 10.5 34.5 10.5C34.5 10.5 33.9905 8.38377 34.7666 7.49998C35.6097 6.53989 38 6.99998 38 6.99998" stroke="white"/>
</svg>
