<svg width="27" height="27" viewBox="0 0 27 27" fill="none" xmlns="http://www.w3.org/2000/svg">
<path d="M9.20629 1.1684C8.9801 1.39294 8.9801 1.75698 9.20629 1.98152C9.43249 2.20606 9.79922 2.20606 10.0254 1.98152C10.2516 1.75698 10.2516 1.39294 10.0254 1.1684C9.79922 0.943866 9.43249 0.943866 9.20629 1.1684Z" fill="#0473FF"/>
<path d="M6.74891 2.79464C6.52272 3.01918 6.52272 3.38322 6.74891 3.60776C6.97511 3.8323 7.34185 3.8323 7.56804 3.60776C7.79424 3.38322 7.79424 3.01918 7.56804 2.79464C7.34185 2.5701 6.97511 2.5701 6.74891 2.79464Z" fill="#0473FF"/>
<path d="M25.9984 13.3652C26.0904 18.9533 22.2359 23.7831 17.1215 25.4128C17.1215 25.4128 9.20629 21.4964 8.79673 21.0898C8.6254 20.9197 10.8445 21.4964 10.8445 19.8701V14.9914H15.7593C15.7593 14.9914 16.988 14.7986 16.988 13.3652C16.988 11.9317 15.7593 11.7389 15.7593 11.7389H10.8445V8.89303H17.8071C19.8549 8.48647 18.8252 6.32824 19.0358 6.45368C21.0836 7.67335 25.5888 10.4409 25.5888 10.4409C25.8401 11.3779 25.9818 12.3573 25.9984 13.3652Z" fill="#0473FF"/>
<path d="M4.7011 4.82744C1.73876 7.38259 0.195904 12.5521 1.4246 17.4308C2.65328 21.0898 7.02605 25.5777 12.4828 25.9685C14.0902 26.0837 15.6575 25.8793 17.1215 25.4128M12.4828 1.1684C18.5816 0.690213 24.0748 4.79591 25.5888 10.4409M17.1215 25.4128C22.2359 23.7831 26.0904 18.9533 25.9984 13.3652C25.9818 12.3573 25.8401 11.3779 25.5888 10.4409M17.1215 25.4128C17.1215 25.4128 9.20629 21.4964 8.79673 21.0898C8.6254 20.9197 10.8445 21.4964 10.8445 19.8701C10.8445 18.2439 10.8445 14.9914 10.8445 14.9914H15.7593C15.7593 14.9914 16.988 14.7986 16.988 13.3652C16.988 11.9317 15.7593 11.7389 15.7593 11.7389H10.8445V8.89303C10.8445 8.89303 14.9402 8.89303 17.8071 8.89303C19.8549 8.48647 18.8252 6.32824 19.0358 6.45368C21.0836 7.67335 25.5888 10.4409 25.5888 10.4409M9.20629 1.98152C8.9801 1.75698 8.9801 1.39294 9.20629 1.1684C9.43249 0.943866 9.79922 0.943866 10.0254 1.1684C10.2516 1.39294 10.2516 1.75698 10.0254 1.98152C9.79922 2.20606 9.43249 2.20606 9.20629 1.98152ZM6.74891 3.60776C6.52272 3.38322 6.52272 3.01918 6.74891 2.79464C6.97511 2.5701 7.34184 2.5701 7.56804 2.79464C7.79424 3.01918 7.79424 3.38322 7.56804 3.60776C7.34184 3.8323 6.97511 3.8323 6.74891 3.60776Z" stroke="#0473FF"/>
</svg>
