<svg width="32" height="31" viewBox="0 0 32 31" fill="none" xmlns="http://www.w3.org/2000/svg"><path fill-rule="evenodd" clip-rule="evenodd" d="M2.25 27.2072L2 30.2302C2 30.2302 2.16175 30.8877 2.5 30.9859C2.79667 31.0721 3.25 30.734 3.25 30.734L5.5 28.7187C5.5 28.7187 7.5 24.9399 8.5 22.6726C14.75 24.4361 19.5 22.6726 19.5 22.6726L22.5 28.7187L24.75 30.734C24.75 30.734 25.2657 30.9111 25.5 30.734C25.6746 30.602 25.75 30.2302 25.75 30.2302V27.4591L17 9.32098L15.25 4.03069V1.00767C15.25 1.00767 14.6251 0 14 0C13.3749 0 12.75 1.00767 12.75 1.00767V4.03069L10.75 9.32098L6.75 17.3824L3.25 13.8555L2.5 13.3517L0 15.367V16.1228L5.25 21.1611L2.25 27.2072ZM10.25 18.8939L14 11.0844L17.75 18.8939C17.75 18.8939 17.25 19.3977 14 19.3977C10.75 19.3977 10.25 18.8939 10.25 18.8939ZM12.25 7.55755C12.25 8.53146 13.0335 9.32098 14 9.32098C14.9665 9.32098 15.75 8.53146 15.75 7.55755C15.75 6.58363 14.9665 5.79412 14 5.79412C13.0335 5.79412 12.25 6.58363 12.25 7.55755Z" fill="white"/><path fill-rule="evenodd" clip-rule="evenodd" d="M14 3.77881C11.929 3.77881 10.1787 5.47186 10.25 7.55758C10.3191 9.57498 11.9968 11.0844 14 11.0844C16.0033 11.0844 17.681 9.57498 17.75 7.55758C17.8214 5.47186 16.0711 3.77881 14 3.77881ZM14 5.54224C12.8955 5.54224 12 6.44454 12 7.55758C12 8.67063 12.8955 9.57293 14 9.57293C15.1046 9.57293 16 8.67063 16 7.55758C16 6.44454 15.1046 5.54224 14 5.54224Z" fill="white" stroke="white"/><path fill-rule="evenodd" clip-rule="evenodd" d="M24.75 25.4437L18.75 12.5959C18.75 12.5959 22.5194 11.1096 25.4139 13.3517L26.75 11.3363C26.75 11.3363 26.931 11.2668 27 11.3363C27.069 11.4059 27 11.5883 27 11.5883L25.7173 13.6036C26.282 14.1054 26.8052 14.7633 27.25 15.6189C27.8936 16.9659 28.1843 18.1647 28.2365 19.2212L30.75 19.3977C30.75 19.3977 31 19.5105 31 19.6496C31 19.7887 30.75 19.9015 30.75 19.9015L28.2438 19.7139C28.1636 23.6491 24.75 25.4437 24.75 25.4437ZM22 14.8632C22 14.4458 22.3358 14.1074 22.75 14.1074C23.1642 14.1074 23.5 14.4458 23.5 14.8632C23.5 15.2805 23.1642 15.6189 22.75 15.6189C22.3358 15.6189 22 15.2805 22 14.8632ZM25 20.9092C25.069 21.257 25.4048 21.4826 25.75 21.413C26.0952 21.3435 26.319 21.0051 26.25 20.6573C26.181 20.3094 25.8452 20.0839 25.5 20.1534C25.1548 20.223 24.931 20.5614 25 20.9092Z" fill="white"/><path d="M25.4139 13.3517C22.5194 11.1096 18.75 12.5959 18.75 12.5959L24.75 25.4437C24.75 25.4437 28.1636 23.6491 28.2438 19.7139M25.4139 13.3517L26.75 11.3363C26.75 11.3363 26.931 11.2668 27 11.3363C27.069 11.4059 27 11.5883 27 11.5883L25.7173 13.6036M25.4139 13.3517C25.5162 13.4309 25.6174 13.5148 25.7173 13.6036M25.7173 13.6036C26.282 14.1054 26.8052 14.7633 27.25 15.6189C27.8936 16.9659 28.1843 18.1647 28.2365 19.2212M28.2365 19.2212L30.75 19.3977C30.75 19.3977 31 19.5105 31 19.6496C31 19.7887 30.75 19.9015 30.75 19.9015L28.2438 19.7139M28.2365 19.2212C28.2448 19.389 28.2471 19.5533 28.2438 19.7139M22 14.8632C22 14.4458 22.3358 14.1074 22.75 14.1074C23.1642 14.1074 23.5 14.4458 23.5 14.8632C23.5 15.2805 23.1642 15.6189 22.75 15.6189C22.3358 15.6189 22 15.2805 22 14.8632ZM25.75 21.413C25.4048 21.4826 25.069 21.257 25 20.9092C24.931 20.5614 25.1548 20.223 25.5 20.1534C25.8452 20.0839 26.181 20.3094 26.25 20.6573C26.319 21.0051 26.0952 21.3435 25.75 21.413Z" stroke="white" stroke-width="0.5"/>
</svg>
