<svg width="246" height="66" viewBox="0 0 246 66" fill="none" xmlns="http://www.w3.org/2000/svg">
<g clip-path="url(#clip0_40_396)">
<path d="M0 39.7527L6.84736 35.3353C13.6947 30.8349 27.3895 22.1245 41.0842 20.9424C54.7789 19.8432 68.4736 26.4797 82.1684 29.7979C95.8631 33.1162 109.558 33.1162 123.253 29.7979C136.947 26.4797 150.642 19.8432 164.337 16.5249C178.031 13.2067 191.726 13.2067 205.421 12.1075C219.116 10.9254 232.81 8.85149 239.658 7.66936L246.505 6.57019V66.2987H239.658C232.81 66.2987 219.116 66.2987 205.421 66.2987C191.726 66.2987 178.031 66.2987 164.337 66.2987C150.642 66.2987 136.947 66.2987 123.253 66.2987C109.558 66.2987 95.8631 66.2987 82.1684 66.2987C68.4736 66.2987 54.7789 66.2987 41.0842 66.2987C27.3895 66.2987 13.6947 66.2987 6.84736 66.2987H0V39.7527Z" fill="#0473FF"/>
</g>
<defs>
<clipPath id="clip0_40_396">
<rect width="246" height="66" fill="white"/>
</clipPath>
</defs>
</svg>
