<?xml version="1.0" standalone="no"?><svg xmlns="http://www.w3.org/2000/svg" viewBox="0 0 1440 320"><path fill="#0099ff" fill-opacity="1" d="M0,224L30,197.3C60,171,120,117,180,117.3C240,117,300,171,360,165.3C420,160,480,96,540,58.7C600,21,660,11,720,10.7C780,11,840,21,900,48C960,75,1020,117,1080,133.3C1140,149,1200,139,1260,144C1320,149,1380,171,1410,181.3L1440,192L1440,0L1410,0C1380,0,1320,0,1260,0C1200,0,1140,0,1080,0C1020,0,960,0,900,0C840,0,780,0,720,0C660,0,600,0,540,0C480,0,420,0,360,0C300,0,240,0,180,0C120,0,60,0,30,0L0,0Z"></path></svg>